<svg id="VVM" xmlns="http://www.w3.org/2000/svg" width="157.98" height="24" viewBox="0 0 157.98 24">
  <g id="Group_10008" data-name="Group 10008" transform="translate(0)">
    <path id="Txt" d="M.9,0V-7.109H2.886a3.092,3.092,0,0,1,1.567.4,2.751,2.751,0,0,1,1.082,1.14,3.591,3.591,0,0,1,.388,1.689v.654a3.591,3.591,0,0,1-.386,1.689A2.745,2.745,0,0,1,4.451-.4,3.185,3.185,0,0,1,2.842,0Zm.6-6.6V-.508H2.847a2.32,2.32,0,0,0,1.8-.745,2.876,2.876,0,0,0,.679-2.014v-.625a2.809,2.809,0,0,0-.669-1.963A2.281,2.281,0,0,0,2.9-6.6ZM11.872-3.408H8.547v2.9H12.37V0H7.946V-7.109h4.4V-6.6h-3.8v2.681h3.325Zm6.286,1.66a1.151,1.151,0,0,0-.415-.935,4.383,4.383,0,0,0-1.519-.654,5.322,5.322,0,0,1-1.611-.676,1.6,1.6,0,0,1-.723-1.357A1.59,1.59,0,0,1,14.562-6.7a2.757,2.757,0,0,1,1.716-.51,2.847,2.847,0,0,1,1.267.273,2.073,2.073,0,0,1,.867.762,2,2,0,0,1,.308,1.089h-.605a1.487,1.487,0,0,0-.5-1.169,1.942,1.942,0,0,0-1.338-.442,2.11,2.11,0,0,0-1.3.364,1.135,1.135,0,0,0-.483.95,1.074,1.074,0,0,0,.435.884,4.031,4.031,0,0,0,1.392.6,6.529,6.529,0,0,1,1.45.542,2.067,2.067,0,0,1,.742.671,1.68,1.68,0,0,1,.249.923A1.607,1.607,0,0,1,18.092-.41,2.859,2.859,0,0,1,16.322.1a3.47,3.47,0,0,1-1.379-.269,2.107,2.107,0,0,1-.952-.752,1.941,1.941,0,0,1-.325-1.108h.6a1.419,1.419,0,0,0,.562,1.187,2.377,2.377,0,0,0,1.494.435,2.215,2.215,0,0,0,1.333-.366A1.145,1.145,0,0,0,18.158-1.748ZM21.29,0h-.6V-7.109h.6Zm7.561-.845a2.012,2.012,0,0,1-.979.693A4.236,4.236,0,0,1,26.38.1,2.77,2.77,0,0,1,24.9-.3,2.665,2.665,0,0,1,23.89-1.436a3.838,3.838,0,0,1-.361-1.68v-.9a3.434,3.434,0,0,1,.747-2.336,2.528,2.528,0,0,1,2.007-.857,2.666,2.666,0,0,1,1.768.559,2.308,2.308,0,0,1,.8,1.541h-.6a1.837,1.837,0,0,0-.637-1.184,2.055,2.055,0,0,0-1.321-.4,1.932,1.932,0,0,0-1.577.708,3.068,3.068,0,0,0-.581,2v.84A3.507,3.507,0,0,0,24.4-1.716a2.187,2.187,0,0,0,.791.964A2.092,2.092,0,0,0,26.38-.41a3.3,3.3,0,0,0,1.333-.244,1.436,1.436,0,0,0,.537-.376V-2.866H26.341v-.508h2.51Zm7.5.845h-.6L31.66-6.084V0h-.605V-7.109h.605l4.092,6.089V-7.109h.6Zm9.076-1.992H42.2L41.464,0h-.63l2.69-7.109H44.1L46.786,0h-.625ZM42.382-2.5h2.852L43.808-6.377ZM53.624,0h-.6L48.937-6.084V0h-.605V-7.109h.605l4.092,6.089V-7.109h.6Zm2.307,0V-7.109h1.987a3.092,3.092,0,0,1,1.567.4,2.751,2.751,0,0,1,1.082,1.14,3.591,3.591,0,0,1,.388,1.689v.654a3.591,3.591,0,0,1-.386,1.689A2.745,2.745,0,0,1,59.483-.4a3.185,3.185,0,0,1-1.609.4Zm.6-6.6V-.508h1.348a2.32,2.32,0,0,0,1.8-.745,2.876,2.876,0,0,0,.679-2.014v-.625a2.809,2.809,0,0,0-.669-1.963A2.281,2.281,0,0,0,57.928-6.6ZM.9,11V3.891H2.886a3.092,3.092,0,0,1,1.567.4,2.751,2.751,0,0,1,1.082,1.14,3.591,3.591,0,0,1,.388,1.689v.654a3.591,3.591,0,0,1-.386,1.689A2.745,2.745,0,0,1,4.451,10.6a3.185,3.185,0,0,1-1.609.4Zm.6-6.6v6.089H2.847a2.32,2.32,0,0,0,1.8-.745,2.876,2.876,0,0,0,.679-2.014V7.108a2.809,2.809,0,0,0-.669-1.963A2.281,2.281,0,0,0,2.9,4.4ZM11.872,7.592H8.547v2.9H12.37V11H7.946V3.891h4.4V4.4h-3.8V7.084h3.325Zm4.406,2.529.039.151.044-.151L18.6,3.891h.659L16.61,11h-.576L13.388,3.891h.654Zm8.449-2.529H21.4v2.9h3.823V11H20.8V3.891h4.4V4.4H21.4V7.084h3.325Zm2.868,2.9h3.511V11H26.99V3.891H27.6ZM37.7,7.831a4.108,4.108,0,0,1-.339,1.724,2.59,2.59,0,0,1-.969,1.143,2.654,2.654,0,0,1-1.455.4,2.525,2.525,0,0,1-2.012-.891,3.563,3.563,0,0,1-.767-2.4V7.069A4.082,4.082,0,0,1,32.5,5.348a2.558,2.558,0,0,1,2.424-1.555,2.657,2.657,0,0,1,1.448.4,2.6,2.6,0,0,1,.969,1.118A4.024,4.024,0,0,1,37.7,6.981Zm-.6-.771a3.142,3.142,0,0,0-.581-2.012,2.089,2.089,0,0,0-3.171,0,3.167,3.167,0,0,0-.588,2.039v.742a3.142,3.142,0,0,0,.586,2,2.091,2.091,0,0,0,3.184.01,3.226,3.226,0,0,0,.571-2.034ZM40.31,8.1V11h-.6V3.891h2.422a2.553,2.553,0,0,1,1.75.566,1.97,1.97,0,0,1,.642,1.558,1.951,1.951,0,0,1-.618,1.545,2.626,2.626,0,0,1-1.79.544Zm0-.508h1.821a1.924,1.924,0,0,0,1.333-.415,1.481,1.481,0,0,0,.459-1.157,1.549,1.549,0,0,0-.457-1.174,1.833,1.833,0,0,0-1.3-.447H40.31Zm6.853-3.706,2.622,6.274,2.632-6.274h.8V11h-.6V7.9l.049-3.174L50.019,11h-.464L46.918,4.755l.049,3.13V11h-.6V3.891Zm12.282,3.7H56.119v2.9h3.823V11H55.519V3.891h4.4V4.4h-3.8V7.084h3.325ZM67,11h-.6L62.313,4.916V11h-.605V3.891h.605L66.4,9.979V3.891H67Zm6.989-6.6H71.553V11h-.6V4.4H68.521V3.891h5.469Z" transform="translate(83.991 10)" fill="#999"/>
    <rect id="Separator" width="1" height="24" transform="translate(74.991)" fill="#999"/>
    <path id="Gray" d="M138.52,342.938a1.15,1.15,0,0,1-1-.574l-9.243-16.01a1.149,1.149,0,0,1,1.99-1.149l8.248,14.287,8.248-14.287a1.149,1.149,0,0,1,1.99,1.149l-9.243,16.01A1.149,1.149,0,0,1,138.52,342.938Zm56.453-1.724-9.243-16.01a1.149,1.149,0,0,0-1.99,0l-8.248,14.287L167.245,325.2c-.011-.019-.026-.035-.038-.053a1.145,1.145,0,0,1,.038,1.2l-.995,1.724,8.248,14.286a1.149,1.149,0,0,0,1.99,0l8.248-14.286,8.248,14.286a1.149,1.149,0,1,0,1.99-1.149Z" transform="translate(-128.128 -321.63)" fill="#999"/>
    <path id="Red" d="M221.828,117.784a1.15,1.15,0,0,0-1.57.42l-8.248,14.287L203.762,118.2c-.011-.019-.026-.035-.038-.053a1.145,1.145,0,0,1,.038,1.2l-.995,1.724,8.248,14.286a1.149,1.149,0,0,0,1.99,0l9.243-16.01A1.149,1.149,0,0,0,221.828,117.784Z" transform="translate(-183.128 -114.63)" fill="#999"/>
  </g>
</svg>
